# xmcd
#
# Track frame offsets: 
#        150
#        25674
#        37663
#        69653
#        109006
#        127393
#        155229
#        186241
#        217469
#        252991
#        278624
#
# Disc length: 4071 seconds
#
# Revision: 1
# Processed by: cddbd v1.5.2PL0 Copyright (c) Steve Scherf et al.
# Submitted via: ExactAudioCopy v0.99pb5
#
DISCID=a70fe50b
DTITLE=University of North Texas One O'Clock Lab Band - Lab 2004
DYEAR=2004
DGENRE=Jazz
TTITLE0=AWJ
TTITLE1=Cherokee
TTITLE2=Places
TTITLE3=Terracotta
TTITLE4=Beautiful Friendship
TTITLE5=Look
TTITLE6=Orion
TTITLE7=Girls in the Pool
TTITLE8=Cobblestone Road
TTITLE9=A study was Done
TTITLE10=Young and Foolish
EXTD=YEAR: 2004
EXTT0=
EXTT1=
EXTT2=
EXTT3=
EXTT4=
EXTT5=
EXTT6=
EXTT7=
EXTT8=
EXTT9=
EXTT10=
PLAYORDER=
